<svg id="Contact_Icon" data-name="Contact-Icon" xmlns="http://www.w3.org/2000/svg" width="50" height="50" viewBox="0 0 50 50">
  <circle id="楕円形_5" data-name="楕円形 5" cx="25" cy="25" r="25" fill="#777"/>
  <path id="contact" d="M135.75-845l-.437-5.25h-.437a14.35,14.35,0,0,1-10.544-4.331A14.351,14.351,0,0,1,120-865.125a14.35,14.35,0,0,1,4.331-10.544A14.35,14.35,0,0,1,134.875-880a14.49,14.49,0,0,1,5.8,1.159,15.022,15.022,0,0,1,4.725,3.194,15.022,15.022,0,0,1,3.194,4.725,14.491,14.491,0,0,1,1.159,5.8,18.689,18.689,0,0,1-1.072,6.3,22.3,22.3,0,0,1-2.931,5.6,24.781,24.781,0,0,1-4.419,4.681A27.381,27.381,0,0,1,135.75-845Zm3.5-6.388a21.791,21.791,0,0,0,5.053-6.147,15.44,15.44,0,0,0,1.947-7.591,10.98,10.98,0,0,0-3.3-8.072,10.98,10.98,0,0,0-8.072-3.3,10.981,10.981,0,0,0-8.072,3.3,10.981,10.981,0,0,0-3.3,8.072,10.98,10.98,0,0,0,3.3,8.072,10.98,10.98,0,0,0,8.072,3.3h4.375Zm-4.419-4.156a1.729,1.729,0,0,0,1.269-.525,1.729,1.729,0,0,0,.525-1.269,1.728,1.728,0,0,0-.525-1.269,1.729,1.729,0,0,0-1.269-.525,1.729,1.729,0,0,0-1.269.525,1.728,1.728,0,0,0-.525,1.269,1.729,1.729,0,0,0,.525,1.269A1.729,1.729,0,0,0,134.831-855.544Zm-1.269-5.556h2.625a4.505,4.505,0,0,1,.263-1.838,10.387,10.387,0,0,1,1.663-1.925,8.08,8.08,0,0,0,1.313-1.706,3.9,3.9,0,0,0,.525-1.969,3.894,3.894,0,0,0-1.509-3.347A5.833,5.833,0,0,0,134.875-873a4.951,4.951,0,0,0-3.238,1.072,5.7,5.7,0,0,0-1.837,2.6l2.45.963a4.051,4.051,0,0,1,.831-1.466,2.221,2.221,0,0,1,1.794-.722,2.263,2.263,0,0,1,1.772.656,2.113,2.113,0,0,1,.591,1.444,2.185,2.185,0,0,1-.438,1.334,10.845,10.845,0,0,1-1.05,1.2,7.035,7.035,0,0,0-1.859,2.078A7.791,7.791,0,0,0,133.562-861.1ZM134.875-863.944Z" transform="translate(-110.25 887.5)" fill="#f0f8ff"/>
</svg>
