<svg id="News_Icon" data-name="News-Icon" xmlns="http://www.w3.org/2000/svg" width="50" height="50" viewBox="0 0 50 50">
  <circle id="楕円形_3" data-name="楕円形 3" cx="25" cy="25" r="25" fill="#777"/>
  <path id="news" d="M123.889-805a3.745,3.745,0,0,1-2.747-1.142A3.745,3.745,0,0,1,120-808.889v-27.222a3.745,3.745,0,0,1,1.142-2.747A3.745,3.745,0,0,1,123.889-840h21.389L155-830.278v21.389a3.745,3.745,0,0,1-1.142,2.747A3.745,3.745,0,0,1,151.111-805Zm0-3.889h27.222v-19.444h-7.778v-7.778H123.889Zm3.889-3.889h19.444v-3.889H127.778Zm0-15.556H137.5v-3.889h-9.722Zm0,7.778h19.444v-3.889H127.778Zm-3.889-15.556v0Z" transform="translate(-112.5 847.5)" fill="#f0f8ff"/>
</svg>
