<svg id="Settings_Icon" data-name="Settings-Icon" xmlns="http://www.w3.org/2000/svg" width="50" height="50" viewBox="0 0 50 50">
  <circle id="楕円形_6" data-name="楕円形 6" cx="25" cy="25" r="25" fill="#777"/>
  <path id="settings" d="M90.766-845.025l-.7-5.6A6.633,6.633,0,0,1,89-851.145q-.5-.306-.984-.656l-5.2,2.186L78-857.922l4.5-3.41a4.177,4.177,0,0,1-.044-.59V-863.1a4.173,4.173,0,0,1,.044-.59L78-867.1l4.809-8.307,5.2,2.186a11.9,11.9,0,0,1,1.006-.656,8.823,8.823,0,0,1,1.049-.525l.7-5.6h9.618l.7,5.6a6.648,6.648,0,0,1,1.071.525q.5.306.984.656l5.2-2.186,4.809,8.307-4.5,3.41a4.171,4.171,0,0,1,.044.59v1.181a2.147,2.147,0,0,1-.087.59l4.5,3.41-4.809,8.307-5.159-2.186a11.924,11.924,0,0,1-1.006.656,8.8,8.8,0,0,1-1.049.525l-.7,5.6Zm4.9-11.367a5.9,5.9,0,0,0,4.328-1.792,5.9,5.9,0,0,0,1.792-4.328,5.9,5.9,0,0,0-1.792-4.328,5.9,5.9,0,0,0-4.328-1.793,5.877,5.877,0,0,0-4.35,1.793,5.934,5.934,0,0,0-1.771,4.328,5.934,5.934,0,0,0,1.771,4.328A5.876,5.876,0,0,0,95.662-856.392Zm0-3.5a2.53,2.53,0,0,1-1.858-.765,2.529,2.529,0,0,1-.765-1.858,2.53,2.53,0,0,1,.765-1.858,2.53,2.53,0,0,1,1.858-.765,2.53,2.53,0,0,1,1.858.765,2.53,2.53,0,0,1,.765,1.858,2.53,2.53,0,0,1-.765,1.858A2.53,2.53,0,0,1,95.662-859.889ZM95.575-862.512Zm-1.749,13.99H97.28l.612-4.634a9.8,9.8,0,0,0,2.514-1.027,10.45,10.45,0,0,0,2.12-1.64l4.328,1.793L108.56-857l-3.76-2.842a6.171,6.171,0,0,0,.306-1.29,10.751,10.751,0,0,0,.087-1.377,10.753,10.753,0,0,0-.087-1.377,6.171,6.171,0,0,0-.306-1.29l3.76-2.842-1.705-2.973-4.328,1.836a9.713,9.713,0,0,0-2.12-1.683,9.8,9.8,0,0,0-2.514-1.027l-.568-4.634H93.87l-.612,4.634a9.8,9.8,0,0,0-2.514,1.027,10.451,10.451,0,0,0-2.12,1.639L84.3-870.994l-1.705,2.973,3.76,2.8a7.119,7.119,0,0,0-.306,1.311,10.6,10.6,0,0,0-.087,1.4,10.251,10.251,0,0,0,.087,1.355,7.117,7.117,0,0,0,.306,1.312L82.59-857l1.705,2.973,4.328-1.836a9.712,9.712,0,0,0,2.12,1.683,9.8,9.8,0,0,0,2.514,1.027Z" transform="translate(-70.575 887.5)" fill="#f0f8ff"/>
</svg>
